<?xml version="1.0" standalone="no"?>
<!DOCTYPE svg PUBLIC "-//W3C//DTD SVG 20010904//EN"
 "http://www.w3.org/TR/2001/REC-SVG-20010904/DTD/svg10.dtd">
<svg version="1.0" xmlns="http://www.w3.org/2000/svg"
 width="736.000000pt" height="736.000000pt" viewBox="0 0 736.000000 736.000000"
 preserveAspectRatio="xMidYMid meet">
<metadata>
Created by potrace 1.11, written by Peter Selinger 2001-2013
</metadata>
<g transform="translate(0.000000,736.000000) scale(0.100000,-0.100000)"
fill="#000000" stroke="none">
<path d="M3577 7354 c-1 -1 -54 -4 -117 -8 -63 -3 -137 -9 -165 -12 -72 -8
-296 -42 -325 -49 -14 -3 -38 -8 -55 -11 -16 -2 -48 -10 -70 -15 -22 -6 -49
-13 -60 -15 -116 -22 -437 -134 -615 -214 -259 -117 -586 -316 -775 -471 -187
-154 -374 -335 -500 -484 -33 -38 -63 -72 -66 -75 -35 -31 -271 -371 -327
-471 -135 -241 -210 -404 -287 -619 -25 -70 -83 -255 -90 -286 -2 -10 -15 -66
-28 -124 -42 -176 -69 -356 -84 -550 -13 -173 -6 -577 11 -680 3 -14 7 -50 10
-80 3 -30 8 -66 11 -80 3 -14 12 -61 20 -105 12 -67 35 -172 50 -235 30 -124
118 -388 165 -495 10 -22 30 -69 46 -105 36 -82 125 -256 172 -335 455 -773
1153 -1347 1985 -1634 102 -35 241 -77 285 -86 9 -2 55 -12 102 -24 93 -22
294 -57 380 -65 30 -3 87 -9 125 -13 147 -14 634 -7 722 11 12 3 46 7 75 10
29 4 64 8 78 11 14 3 45 8 70 11 25 3 48 8 51 10 4 2 24 6 45 10 22 3 84 17
139 31 55 14 105 26 110 27 6 2 30 9 55 16 25 7 50 14 55 16 33 8 273 98 343
128 94 40 319 152 372 184 19 12 49 29 65 38 63 36 205 130 311 209 654 485
1120 1158 1349 1947 31 107 103 443 103 478 0 8 4 49 10 91 30 207 34 662 8
819 -3 14 -7 50 -10 80 -3 30 -8 66 -10 80 -3 14 -7 41 -10 60 -3 19 -8 46
-11 60 -3 14 -8 41 -11 60 -19 112 -125 483 -164 575 -5 11 -32 75 -60 143
-147 350 -370 703 -630 997 -63 72 -284 289 -345 340 -33 28 -66 56 -75 64 -8
8 -57 46 -110 85 -52 39 -97 73 -100 76 -16 17 -266 172 -375 233 -34 18 -207
104 -267 131 -235 107 -666 235 -883 261 -22 3 -51 7 -65 10 -14 3 -52 7 -85
11 -33 3 -66 7 -73 10 -24 7 -466 24 -475 18z"/>
</g>
</svg>
